<svg xmlns="http://www.w3.org/2000/svg" xmlns:xlink="http://www.w3.org/1999/xlink" width="1920" height="720" viewBox="0 0 1920 720">
  <defs>
    <clipPath id="clip-path">
      <rect id="Rectangle_20" data-name="Rectangle 20" width="1920" height="720" transform="translate(-1424 2812) rotate(180)" fill="#fff" stroke="#707070" stroke-width="1"/>
    </clipPath>
    <linearGradient id="linear-gradient" x1="1" y1="0.728" x2="0.004" y2="0.728" gradientUnits="objectBoundingBox">
      <stop offset="0" stop-color="#cecee8"/>
      <stop offset="1" stop-color="#fefefe"/>
    </linearGradient>
  </defs>
  <g id="Mask_Group_1" data-name="Mask Group 1" transform="translate(-1424 2812) rotate(-180)" opacity="0.5" clip-path="url(#clip-path)">
    <g id="pozadi-right" transform="translate(-3777.125 1797.318)">
      <g id="Layer_x0020_1" transform="translate(0 7.241)">
        <rect id="Rectangle_21" data-name="Rectangle 21" width="2353.525" height="1261.766" fill="url(#linear-gradient)"/>
      </g>
      <g id="__x0023_Layer_x0020_1" transform="translate(1232.757)">
        <g id="_-1640211280">
          <path id="Path_92" data-name="Path 92" d="M1774.77,409.5l-246.105,5.388L1407,526.116l171.035-4.709,75.07-.66Z" transform="translate(-1191.546 -23.886)" fill="#fff" stroke="#cecee8" stroke-width="1.191" fill-rule="evenodd"/>
          <path id="Path_93" data-name="Path 93" d="M1774.77,409.5l-246.105,5.388L1407,526.116l171.035-4.709,75.07-.66Z" transform="translate(-1191.546 -23.886)" fill="#fff" stroke="#cecee8" stroke-width="1.191"/>
          <path id="Path_94" data-name="Path 94" d="M1737.378,438.96,1646.1,522.422v0Z" transform="translate(-1184.542 -25.565)" fill="#fff" stroke="#cecee8" stroke-width="1.191"/>
          <path id="Path_95" data-name="Path 95" d="M1653.061,527.462l-.011,0-75.07.657-167.467,1.467-1.766,1.613,1.755,1.544,167.479-4.612,75.07-.66Z" transform="translate(-1191.494 -30.606)" fill="#fff" stroke="#cecee8" stroke-width="1.191"/>
          <path id="Path_96" data-name="Path 96" d="M1534.529,1346.16l434.234-3.8-434.246,3.79Z" transform="translate(-1187.81 -77.023)" fill="#fff" stroke="#cecee8" stroke-width="1.191"/>
          <path id="Path_97" data-name="Path 97" d="M2139.486,1107.032l-122.878,1.078-245.7,2.145Z" transform="translate(-1180.886 -63.619)" fill="#fff" stroke="#cecee8" stroke-width="1.191" fill-rule="evenodd"/>
          <path id="Path_98" data-name="Path 98" d="M2139.486,1107.032l-122.878,1.078-245.7,2.145Z" transform="translate(-1180.886 -63.619)" fill="#fff" stroke="#cecee8" stroke-width="1.191"/>
          <path id="Path_99" data-name="Path 99" d="M2139.486,1107.032h0l-122.878,1.078-245.7,2.145Z" transform="translate(-1180.886 -63.619)" fill="#fff" stroke="#cecee8" stroke-width="1.191"/>
          <path id="Path_100" data-name="Path 100" d="M1777.9,1103.86,1653.838,994.765,1532.18,1106.009v.013l124.052,109.089Z" transform="translate(-1187.879 -57.224)" fill="#fff" stroke="#cecee8" stroke-width="1.191" fill-rule="evenodd"/>
          <path id="Path_101" data-name="Path 101" d="M1656.232,1221.83l-124.052-109.1v.006Z" transform="translate(-1187.879 -63.944)" fill="#fff" stroke="#cecee8" stroke-width="1.191"/>
          <path id="Path_102" data-name="Path 102" d="M1777.9,1103.86,1653.838,994.765,1532.18,1106.009v.013l124.052,109.089Z" transform="translate(-1187.879 -57.224)" fill="#fff" stroke="#cecee8" stroke-width="1.191"/>
          <path id="Path_103" data-name="Path 103" d="M1532.18,1106.009l121.67-111.238h-.011Z" transform="translate(-1187.879 -57.225)" fill="#fff" stroke="#cecee8" stroke-width="1.191"/>
          <path id="Path_104" data-name="Path 104" d="M2016.687,1094.707l122.867-1.076L2301.56,945.49V871.854l-532.988,4.668Z" transform="translate(-1180.955 -50.223)" fill="#fff" stroke="#cecee8" stroke-width="1.191" fill-rule="evenodd"/>
          <path id="Path_105" data-name="Path 105" d="M2016.687,1094.707l122.867-1.076L2301.56,945.49V871.854l-532.988,4.668Z" transform="translate(-1180.955 -50.223)" fill="#f5f5fb" stroke="#cecee8" stroke-width="1.191"/>
          <path id="Path_106" data-name="Path 106" d="M1768.584,876.807v0h-.012Z" transform="translate(-1180.955 -50.505)" fill="#fff" stroke="#cecee8" stroke-width="1.191"/>
          <path id="Path_107" data-name="Path 107" d="M1892.635,985.9,1768.583,876.8v0Z" transform="translate(-1180.954 -50.505)" fill="#fff" stroke="#cecee8" stroke-width="1.191"/>
          <path id="Path_108" data-name="Path 108" d="M2301.56,755.019l-411.33,3.6L1768.583,869.867,2301.56,865.2Z" transform="translate(-1180.954 -43.568)" fill="#fff" stroke="#cecee8" stroke-width="1.191" fill-rule="evenodd"/>
          <path id="Path_109" data-name="Path 109" d="M1890.229,758.615,1768.583,869.867,2301.56,865.2V755.019Z" transform="translate(-1180.954 -43.568)" fill="#fff" stroke="#cecee8" stroke-width="1.191"/>
          <path id="Path_110" data-name="Path 110" d="M1887.705,758.608l.011.007,410.354-3.6h0Z" transform="translate(-1177.466 -43.568)" fill="#fff" stroke="#cecee8" stroke-width="1.191"/>
          <path id="Path_111" data-name="Path 111" d="M1417.926,996.924l-98.591,4.3L1197.677,1112.47l344.3-6.462,121.67-111.238Z" transform="translate(-1197.677 -57.225)" fill="#fff" stroke="#cecee8" stroke-width="1.191" fill-rule="evenodd"/>
          <path id="Path_112" data-name="Path 112" d="M1535.052,1112.74l-122.193,1.07-1.371,1.249Z" transform="translate(-1191.414 -63.944)" fill="#fff" stroke="#cecee8" stroke-width="1.191"/>
          <path id="Path_113" data-name="Path 113" d="M1653.838,994.771,1532.18,1106.009l121.67-111.238Z" transform="translate(-1187.879 -57.225)" fill="#fff" stroke="#cecee8" stroke-width="1.191"/>
          <path id="Path_114" data-name="Path 114" d="M1417.926,996.924l-98.591,4.3L1197.677,1112.47l344.3-6.462,121.67-111.238Z" transform="translate(-1197.677 -57.225)" fill="#fff" stroke="#cecee8" stroke-width="1.191"/>
          <path id="Path_115" data-name="Path 115" d="M1411.658,996.991h0l118.241-1.038Z" transform="translate(-1191.409 -57.292)" fill="#fff" stroke="#cecee8" stroke-width="1.191"/>
          <path id="Path_116" data-name="Path 116" d="M2301.609,748.147l-124.459,1.1L2115.13,694.7l184.306-1.623,2.174-1.986v-52.9L1766.9,642.864l123.855,108.662.5.434,410.354-3.6Z" transform="translate(-1181.004 -36.913)" fill="#fff" stroke="#cecee8" stroke-width="1.191" fill-rule="evenodd"/>
          <path id="Path_117" data-name="Path 117" d="M2298.071,755.019l-410.365,3.589.011.007,410.354-3.6Z" transform="translate(-1177.466 -43.568)" fill="#fff" stroke="#cecee8" stroke-width="1.191"/>
          <path id="Path_118" data-name="Path 118" d="M2177.15,749.248,2115.13,694.7l184.306-1.623,2.174-1.986v-52.9L1766.9,642.864l123.855,108.662.5.434,410.354-3.6v-.218Z" transform="translate(-1181.004 -36.913)" fill="#f5f5fb" stroke="#cecee8" stroke-width="1.191"/>
          <path id="Path_119" data-name="Path 119" d="M1887.243,758.376v0h-.012Z" transform="translate(-1177.479 -43.759)" fill="#fff" stroke="#cecee8" stroke-width="1.191"/>
          <path id="Path_120" data-name="Path 120" d="M1890.767,751.809,1766.9,643.146l123.855,108.662Z" transform="translate(-1181.004 -37.195)" fill="#fff" stroke="#cecee8" stroke-width="1.191"/>
          <path id="Path_121" data-name="Path 121" d="M2286.455,694.279l-2.174,1.985h0l2.174-1.982Z" transform="translate(-1165.849 -40.108)" fill="#fff" stroke="#cecee8" stroke-width="1.191"/>
          <path id="Path_122" data-name="Path 122" d="M2289.526,696.388h-.006l-1.4.012Zm-184.3,1.629h-.008l62.023,54.547h.007Z" transform="translate(-1171.094 -40.228)" fill="#fff" stroke="#cecee8" stroke-width="1.191"/>
          <path id="Path_123" data-name="Path 123" d="M1770.3,629.715l122.285-111.133L1767.766,409.5,1646.1,520.744Z" transform="translate(-1184.542 -23.886)" fill="#fff" stroke="#cecee8" stroke-width="1.191" fill-rule="evenodd"/>
          <path id="Path_124" data-name="Path 124" d="M1646.1,522.424l91.281-83.464L1646.1,522.422Z" transform="translate(-1184.542 -25.565)" fill="#fff" stroke="#cecee8" stroke-width="1.191"/>
          <path id="Path_125" data-name="Path 125" d="M1770.3,629.715l122.285-111.133L1767.766,409.5,1646.1,520.744Z" transform="translate(-1184.542 -23.886)" fill="#f5f5fb" stroke="#cecee8" stroke-width="1.191"/>
          <path id="Path_126" data-name="Path 126" d="M1820.872,590.88l-54.107,49.165v0Z" transform="translate(-1181.008 -34.218)" fill="#fff" stroke="#cecee8" stroke-width="1.191"/>
          <path id="Path_127" data-name="Path 127" d="M1770.3,636.43v0L1646.1,527.461v0l124.2,108.971Z" transform="translate(-1184.542 -30.606)" fill="#fff" stroke="#cecee8" stroke-width="1.191"/>
          <path id="Path_128" data-name="Path 128" d="M2301.613,576.27l-3.394.029-61.8-54.356-347.369,3.051L1766.765,636.12l.151.122,534.7-4.685Z" transform="translate(-1181.008 -30.291)" fill="#fff" stroke="#cecee8" stroke-width="1.191" fill-rule="evenodd"/>
          <path id="Path_129" data-name="Path 129" d="M1766.765,640.047l54.107-49.167-54.107,49.165Z" transform="translate(-1181.008 -34.218)" fill="#fff" stroke="#cecee8" stroke-width="1.191"/>
          <path id="Path_130" data-name="Path 130" d="M2298.219,576.3l-61.8-54.356-347.369,3.051L1766.765,636.12l.151.122,534.7-4.685V576.27Z" transform="translate(-1181.008 -30.291)" fill="#fff" stroke="#cecee8" stroke-width="1.191"/>
          <path id="Path_131" data-name="Path 131" d="M1766.882,643.117l-.116-.107v.005Z" transform="translate(-1181.008 -37.188)" fill="#fff" stroke="#cecee8" stroke-width="1.191"/>
          <path id="Path_132" data-name="Path 132" d="M2162.563,463.831l127.457-1.118h0l-47.332.414Z" transform="translate(-1169.414 -26.918)" fill="#fff" stroke="#cecee8" stroke-width="1.191" fill-rule="evenodd"/>
          <path id="Path_133" data-name="Path 133" d="M2242.688,463.127l-80.125.7,127.457-1.118h0Z" transform="translate(-1169.414 -26.918)" fill="#fff" stroke="#cecee8" stroke-width="1.191"/>
          <path id="Path_134" data-name="Path 134" d="M1889.123,518.43l347.37-3.044-62.265-54.737-184.294,1.612,60.625-55.425-286.255,2.51Z" transform="translate(-1181.08 -23.735)" fill="#fff" stroke="#cecee8" stroke-width="1.191" fill-rule="evenodd"/>
          <path id="Path_135" data-name="Path 135" d="M1889.123,518.43l347.37-3.044-62.265-54.737-184.294,1.612,60.625-55.425-286.255,2.51Z" transform="translate(-1181.08 -23.735)" fill="#fff" stroke="#cecee8" stroke-width="1.191"/>
          <path id="Path_136" data-name="Path 136" d="M2162.563,463.9l62.264,54.737Z" transform="translate(-1169.414 -26.985)" fill="#fff" stroke="#cecee8" stroke-width="1.191"/>
          <path id="Path_137" data-name="Path 137" d="M2043.1,406.835l-.012.005-24.183,22.111Z" transform="translate(-1173.622 -23.735)" fill="#fff" stroke="#cecee8" stroke-width="1.191"/>
          <path id="Path_138" data-name="Path 138" d="M2142.948,1098.084Zm0,0-368.575,3.224L1652.71,1212.551l652.244-5.708v-256.9l-162.006,148.14Z" transform="translate(-1184.349 -54.671)" fill="#fff" stroke="#cecee8" stroke-width="1.191" fill-rule="evenodd"/>
          <path id="Path_139" data-name="Path 139" d="M2139.486,1107.032l-122.878,1.078-245.7,2.145Z" transform="translate(-1180.886 -63.619)" fill="#fff" stroke="#cecee8" stroke-width="1.191"/>
          <path id="Path_140" data-name="Path 140" d="M2142.948,1098.084h0l162.005-148.14v256.9l-652.252,5.718,121.669-111.25Z" transform="translate(-1184.349 -54.671)" fill="#fff" stroke="#cecee8" stroke-width="1.191"/>
          <path id="Path_141" data-name="Path 141" d="M1656.164,1228.074l-121.658,111.251,773.91-6.782V1222.357Z" transform="translate(-1187.811 -70.188)" fill="#fff" stroke="#cecee8" stroke-width="1.191" fill-rule="evenodd"/>
          <path id="Path_142" data-name="Path 142" d="M2001.01,1342.054l-466.494,4.078.012.011Z" transform="translate(-1187.81 -77.006)" fill="#fff" stroke="#cecee8" stroke-width="1.191"/>
          <path id="Path_143" data-name="Path 143" d="M2308.415,1339.2l-773.9,6.771Z" transform="translate(-1187.81 -76.843)" fill="#fff" stroke="#cecee8" stroke-width="1.191"/>
          <path id="Path_144" data-name="Path 144" d="M1656.164,1228.074l-121.658,111.251,773.91-2.79V1222.357Z" transform="translate(-1187.811 -70.188)" fill="#f5f5fb" stroke="#cecee8" stroke-width="1.191"/>
          <path id="Path_145" data-name="Path 145" d="M1655.172,761.648,1411.658,983.459l245.71-2.155,121.67-111.247,121.646-111.252.489-.434Z" transform="translate(-1191.409 -43.759)" fill="#fff" stroke="#cecee8" stroke-width="1.191" fill-rule="evenodd"/>
          <path id="Path_146" data-name="Path 146" d="M1768.584,876.8h-.012l.012,0Z" transform="translate(-1180.955 -50.505)" fill="#fff" stroke="#cecee8" stroke-width="1.191"/>
          <path id="Path_147" data-name="Path 147" d="M1411.658,996.991h0l118.241-1.038Z" transform="translate(-1191.409 -57.292)" fill="#fff" stroke="#cecee8" stroke-width="1.191"/>
          <path id="Path_148" data-name="Path 148" d="M1887.231,758.372l.012,0v0Z" transform="translate(-1177.479 -43.759)" fill="#fff" stroke="#cecee8" stroke-width="1.191"/>
          <path id="Path_149" data-name="Path 149" d="M1655.172,761.648,1411.658,983.459l245.71-2.155,121.67-111.247,121.646-111.252.489-.434Z" transform="translate(-1191.409 -43.759)" fill="#fff" stroke="#cecee8" stroke-width="1.191"/>
          <path id="Path_150" data-name="Path 150" d="M1774.439,1097.141l245.7-2.151L1772.046,876.8l-121.67,111.242Z" transform="translate(-1184.417 -50.505)" fill="#fff" stroke="#cecee8" stroke-width="1.191" fill-rule="evenodd"/>
          <path id="Path_151" data-name="Path 151" d="M1768.583,876.807,1892.635,985.9,1768.583,876.8Z" transform="translate(-1180.954 -50.505)" fill="#fff" stroke="#cecee8" stroke-width="1.191"/>
          <path id="Path_152" data-name="Path 152" d="M1774.439,1097.141l245.7-2.151L1772.046,876.8l-121.67,111.242Z" transform="translate(-1184.417 -50.505)" fill="#fff" stroke="#cecee8" stroke-width="1.191"/>
          <path id="Path_153" data-name="Path 153" d="M1901.309,745.219,1777.443,636.556l-.14-.129-124.2-108.97-75.07.657L1407,529.613l248.313,218.882Z" transform="translate(-1191.546 -30.606)" fill="#fff" stroke="#cecee8" stroke-width="1.191" fill-rule="evenodd"/>
          <path id="Path_154" data-name="Path 154" d="M1410.511,529.582l-1.766,1.613,1.755,1.544,167.479-4.612,75.07-.66.011,0-.011,0-75.07.657Z" transform="translate(-1191.494 -30.606)" fill="#fff" stroke="#cecee8" stroke-width="1.191"/>
          <path id="Path_155" data-name="Path 155" d="M1766.9,643.146l123.855,108.662h.011Z" transform="translate(-1181.004 -37.195)" fill="#fff" stroke="#cecee8" stroke-width="1.191"/>
          <path id="Path_156" data-name="Path 156" d="M1770.3,636.434v-.006L1646.1,527.461v0Z" transform="translate(-1184.542 -30.606)" fill="#fff" stroke="#cecee8" stroke-width="1.191"/>
          <path id="Path_157" data-name="Path 157" d="M1766.765,643.011v.005l.116.1Z" transform="translate(-1181.008 -37.188)" fill="#fff" stroke="#cecee8" stroke-width="1.191"/>
          <path id="Path_158" data-name="Path 158" d="M1901.309,745.219,1777.443,636.556l-.14-.129-124.2-108.97-75.07.657L1407,529.613l248.313,218.882Z" transform="translate(-1191.546 -30.606)" fill="#f5f5fb" stroke="#cecee8" stroke-width="1.191"/>
          <path id="Path_159" data-name="Path 159" d="M1599.879,763.4l-122.867,1.074L1355.354,875.719l122.867-1.424Z" transform="translate(-1193.058 -44.045)" fill="#fff" stroke="#cecee8" stroke-width="1.191" fill-rule="evenodd"/>
          <path id="Path_160" data-name="Path 160" d="M1599.879,763.4l-122.867,1.074L1355.354,875.719l122.867-1.424Z" transform="translate(-1193.058 -44.045)" fill="#fff" stroke="#cecee8" stroke-width="1.191"/>
          <path id="Path_161" data-name="Path 161" d="M2286.455,694.279l-2.174,1.985,2.174-.018Z" transform="translate(-1165.849 -40.108)" fill="#fff" stroke="#cecee8" stroke-width="1.191" fill-rule="evenodd"/>
          <path id="Path_162" data-name="Path 162" d="M2284.281,696.264l2.174-1.982v0Z" transform="translate(-1165.849 -40.108)" fill="#fff" stroke="#cecee8" stroke-width="1.191"/>
          <path id="Path_163" data-name="Path 163" d="M2284.281,696.264l2.174-.018v-1.966Z" transform="translate(-1165.849 -40.108)" fill="#fff" stroke="#cecee8" stroke-width="1.191"/>
          <path id="Path_164" data-name="Path 164" d="M1978.233.595l-58.464,53.461,307.335-2.69L2282.629.595Z" transform="translate(-1176.526 -0.595)" fill="#fff" stroke="#cecee8" stroke-width="1.191" fill-rule="evenodd"/>
          <path id="Path_165" data-name="Path 165" d="M1978.233.595l-58.464,53.461,307.335-2.69L2282.629.595Z" transform="translate(-1176.526 -0.595)" fill="#fff" stroke="#cecee8" stroke-width="1.191"/>
          <path id="Path_166" data-name="Path 166" d="M2224.826,518.569l61.8,54.356,3.393-.031V462.714l-127.457,1.118Z" transform="translate(-1169.414 -26.918)" fill="#fff" stroke="#cecee8" stroke-width="1.191" fill-rule="evenodd"/>
          <path id="Path_167" data-name="Path 167" d="M2224.826,518.636,2162.563,463.9h0Z" transform="translate(-1169.414 -26.985)" fill="#fff" stroke="#cecee8" stroke-width="1.191"/>
          <path id="Path_168" data-name="Path 168" d="M2224.826,518.569l61.8,54.356,3.393-.031V462.714l-127.457,1.118Z" transform="translate(-1169.414 -26.918)" fill="#fff" stroke="#cecee8" stroke-width="1.191"/>
          <path id="Path_169" data-name="Path 169" d="M2287.739,462.712l-47.331.414Z" transform="translate(-1167.134 -26.918)" fill="#fff" stroke="#cecee8" stroke-width="1.191" fill-rule="evenodd"/>
          <path id="Path_170" data-name="Path 170" d="M2287.739,462.712l-47.331.414Z" transform="translate(-1167.134 -26.918)" fill="#fff" stroke="#cecee8" stroke-width="1.191"/>
          <path id="Path_171" data-name="Path 171" d="M2287.739,462.712l-47.331.414Z" transform="translate(-1167.134 -26.918)" fill="#fff" stroke="#cecee8" stroke-width="1.191"/>
          <path id="Path_172" data-name="Path 172" d="M2287.739,462.712l-47.331.414Z" transform="translate(-1167.134 -26.918)" fill="#fff" stroke="#cecee8" stroke-width="1.191"/>
          <path id="Path_173" data-name="Path 173" d="M1983.513,458.856l184.294-1.613,60.835-55.622-62.032-54.552-61.427.539-61.056,55.829Z" transform="translate(-1174.659 -20.331)" fill="#fff" stroke="#cecee8" stroke-width="1.191" fill-rule="evenodd"/>
          <path id="Path_174" data-name="Path 174" d="M2018.907,428.951l24.195-22.116h0l-.012.005Z" transform="translate(-1173.622 -23.735)" fill="#fff" stroke="#cecee8" stroke-width="1.191"/>
          <path id="Path_175" data-name="Path 175" d="M1983.513,458.856l184.294-1.613,60.835-55.622-62.032-54.552-61.427.539-61.056,55.829Z" transform="translate(-1174.659 -20.331)" fill="#fff" stroke="#cecee8" stroke-width="1.191"/>
          <path id="Path_176" data-name="Path 176" d="M2161.412,347.07l-.012,0,36.338,31.956Z" transform="translate(-1169.449 -20.331)" fill="#fff" stroke="#cecee8" stroke-width="1.191"/>
          <path id="Path_177" data-name="Path 177" d="M2221.666,404.915h0Z" transform="translate(-1167.684 -23.626)" fill="#fff" stroke="#cecee8" stroke-width="1.191"/>
          <path id="Path_178" data-name="Path 178" d="M2222.964,404.916h0l-45.6,41.7Z" transform="translate(-1168.981 -23.626)" fill="#fff" stroke="#cecee8" stroke-width="1.191"/>
          <path id="Path_179" data-name="Path 179" d="M2284.255,342.631l-62.02-54.547-60.835,55.63,62.032,54.541Z" transform="translate(-1169.449 -16.971)" fill="#fff" stroke="#cecee8" stroke-width="1.191" fill-rule="evenodd"/>
          <path id="Path_180" data-name="Path 180" d="M2197.738,379.029l-36.326-31.959-.012,0Z" transform="translate(-1169.449 -20.331)" fill="#fff" stroke="#cecee8" stroke-width="1.191"/>
          <path id="Path_181" data-name="Path 181" d="M2284.255,342.631l-62.02-54.547-60.835,55.63,62.032,54.541Z" transform="translate(-1169.449 -16.971)" fill="#fff" stroke="#cecee8" stroke-width="1.191"/>
          <path id="Path_182" data-name="Path 182" d="M2220.5,288.087v0l62.02,54.547v-.005Z" transform="translate(-1167.717 -16.971)" fill="#fff" stroke="#cecee8" stroke-width="1.191"/>
          <path id="Path_183" data-name="Path 183" d="M2286.591,229.039l-7,.061,7,6.149Z" transform="translate(-1165.986 -13.607)" fill="#fff" stroke="#cecee8" stroke-width="1.191" fill-rule="evenodd"/>
          <path id="Path_184" data-name="Path 184" d="M2286.591,229.039l-7,.061,7,6.149Z" transform="translate(-1165.986 -13.607)" fill="#fff" stroke="#cecee8" stroke-width="1.191"/>
          <path id="Path_185" data-name="Path 185" d="M2279.6,229.106l.011,0h-.011Z" transform="translate(-1165.986 -13.611)" fill="#fff" stroke="#cecee8" stroke-width="1.191"/>
          <path id="Path_186" data-name="Path 186" d="M2286.591,222.326l-7,6.391,7-.061Z" transform="translate(-1165.986 -13.225)" fill="#fff" stroke="#cecee8" stroke-width="1.191" fill-rule="evenodd"/>
          <path id="Path_187" data-name="Path 187" d="M2286.591,222.326l-7,6.391,7-.061Z" transform="translate(-1165.986 -13.225)" fill="#fff" stroke="#cecee8" stroke-width="1.191"/>
          <path id="Path_188" data-name="Path 188" d="M2279.607,228.717l6.984-6.386v-.005l-7,6.391Z" transform="translate(-1165.986 -13.225)" fill="#fff" stroke="#cecee8" stroke-width="1.191"/>
          <path id="Path_189" data-name="Path 189" d="M2109.868,289.161Zm0,0-225.6,1.979-20.109.18-60.833,55.617,20.115-.176,348.452-3.052,60.836-55.625-122.859,1.077Z" transform="translate(-1179.937 -16.971)" fill="#fff" stroke="#cecee8" stroke-width="1.191" fill-rule="evenodd"/>
          <path id="Path_190" data-name="Path 190" d="M2109.868,289.161h0l-225.606,1.979-20.115.18-60.834,55.617,20.127-.176,348.449-3.053,60.835-55.625Z" transform="translate(-1179.938 -16.971)" fill="#fff" stroke="#cecee8" stroke-width="1.191"/>
          <path id="Path_191" data-name="Path 191" d="M2291.7,696.368l-2.185.019-184.294,1.629,62.021,54.546,124.459-1.1Z" transform="translate(-1171.094 -40.227)" fill="#fff" stroke="#cecee8" stroke-width="1.191" fill-rule="evenodd"/>
          <path id="Path_192" data-name="Path 192" d="M2167.241,752.563l-62.023-54.547h-.007l62.023,54.547ZM2288.108,696.4l1.41-.012h-.006Z" transform="translate(-1171.094 -40.228)" fill="#fff" stroke="#cecee8" stroke-width="1.191"/>
          <path id="Path_193" data-name="Path 193" d="M2289.514,696.387l-184.294,1.629,62.021,54.546,124.459-1.1V696.368Z" transform="translate(-1171.094 -40.227)" fill="#fff" stroke="#cecee8" stroke-width="1.191"/>
          <path id="Path_194" data-name="Path 194" d="M2278.771,112.274l7.844,6.88V112.2Z" transform="translate(-1166.01 -6.952)" fill="#fff" stroke="#cecee8" stroke-width="1.191" fill-rule="evenodd"/>
          <path id="Path_195" data-name="Path 195" d="M2286.616,112.2l-7.844.069,7.844,6.88Z" transform="translate(-1166.01 -6.952)" fill="#fff" stroke="#cecee8" stroke-width="1.191"/>
          <path id="Path_196" data-name="Path 196" d="M2286.616,119.155l-7.844-6.877h0l7.844,6.88Z" transform="translate(-1166.01 -6.957)" fill="#fff" stroke="#cecee8" stroke-width="1.191"/>
          <path id="Path_197" data-name="Path 197" d="M2288.385,3.786l-3.66-3.191h-10.843l-55.524,50.779,62.1,54.481,7.925-7.2Z" transform="translate(-1167.78 -0.595)" fill="#fff" stroke="#cecee8" stroke-width="1.191" fill-rule="evenodd"/>
          <path id="Path_198" data-name="Path 198" d="M2284.725.595h-10.843l-55.524,50.779,62.1,54.481,7.925-7.2V3.786Z" transform="translate(-1167.78 -0.595)" fill="#fff" stroke="#cecee8" stroke-width="1.191"/>
          <path id="Path_199" data-name="Path 199" d="M2280.46,108.919l-62.1-54.48h0l62.1,54.481Z" transform="translate(-1167.78 -3.662)" fill="#fff" stroke="#cecee8" stroke-width="1.191"/>
          <path id="Path_200" data-name="Path 200" d="M2286.618,104.575l-7.926,7.2.082.056,7.844-.069Z" transform="translate(-1166.013 -6.518)" fill="#fff" stroke="#cecee8" stroke-width="1.191" fill-rule="evenodd"/>
          <path id="Path_201" data-name="Path 201" d="M2286.618,104.575l-7.926,7.2.082.056,7.844-.069Z" transform="translate(-1166.013 -6.518)" fill="#fff" stroke="#cecee8" stroke-width="1.191"/>
          <path id="Path_202" data-name="Path 202" d="M2278.774,112.269l-.082-.056v0Z" transform="translate(-1166.013 -6.953)" fill="#fff" stroke="#cecee8" stroke-width="1.191"/>
          <path id="Path_203" data-name="Path 203" d="M2286.5.595h-3.661l3.661,3.191Z" transform="translate(-1165.891 -0.595)" fill="#fff" stroke="#cecee8" stroke-width="1.191" fill-rule="evenodd"/>
          <path id="Path_204" data-name="Path 204" d="M2286.5.595h-3.661l3.661,3.191Z" transform="translate(-1165.891 -0.595)" fill="#fff" stroke="#cecee8" stroke-width="1.191"/>
          <path id="Path_205" data-name="Path 205" d="M2288.288,345.881l-5.8.051-60.823,55.621,66.622-.585Z" transform="translate(-1167.684 -20.263)" fill="#fff" stroke="#cecee8" stroke-width="1.191" fill-rule="evenodd"/>
          <path id="Path_206" data-name="Path 206" d="M2221.666,404.916h0Z" transform="translate(-1167.684 -23.626)" fill="#fff" stroke="#cecee8" stroke-width="1.191"/>
          <path id="Path_207" data-name="Path 207" d="M2282.49,345.932l-60.823,55.621,66.622-.585V345.881Z" transform="translate(-1167.684 -20.263)" fill="#fff" stroke="#cecee8" stroke-width="1.191"/>
          <path id="Path_208" data-name="Path 208" d="M2290.019,404.3l-66.622.585L2162.563,460.5l80.125-.7,47.332-.414Z" transform="translate(-1169.414 -23.59)" fill="#fff" stroke="#cecee8" stroke-width="1.191" fill-rule="evenodd"/>
          <path id="Path_209" data-name="Path 209" d="M2177.364,446.612l45.6-41.7h0Z" transform="translate(-1168.981 -23.626)" fill="#fff" stroke="#cecee8" stroke-width="1.191"/>
          <path id="Path_210" data-name="Path 210" d="M2290.019,404.3l-66.622.585L2162.563,460.5l80.125-.7,47.332-.414Z" transform="translate(-1169.414 -23.59)" fill="#fff" stroke="#cecee8" stroke-width="1.191"/>
          <path id="Path_211" data-name="Path 211" d="M2222.9,171.569l-121.762,110.9L2224,281.395l60.835-55.621,6.984-6.386V170.65Z" transform="translate(-1171.214 -10.282)" fill="#fff" stroke="#cecee8" stroke-width="1.191" fill-rule="evenodd"/>
          <path id="Path_212" data-name="Path 212" d="M2279.607,229.1h-.011v0Z" transform="translate(-1165.986 -13.611)" fill="#fff" stroke="#cecee8" stroke-width="1.191"/>
          <path id="Path_213" data-name="Path 213" d="M2286.591,222.326l-7,6.391h.011l6.984-6.386Z" transform="translate(-1165.986 -13.225)" fill="#fff" stroke="#cecee8" stroke-width="1.191"/>
          <path id="Path_214" data-name="Path 214" d="M2222.9,171.569l-121.762,110.9L2224,281.395l60.835-55.621,6.984-6.386V170.65Z" transform="translate(-1171.214 -10.282)" fill="#fff" stroke="#cecee8" stroke-width="1.191"/>
          <path id="Path_215" data-name="Path 215" d="M2280.461,229.106v0l-30.388,27.791Z" transform="translate(-1166.851 -13.611)" fill="#fff" stroke="#cecee8" stroke-width="1.191"/>
          <path id="Path_216" data-name="Path 216" d="M2219.443,171.569l68.911-.918h0Z" transform="translate(-1167.749 -10.282)" fill="#fff" stroke="#cecee8" stroke-width="1.191"/>
          <path id="Path_217" data-name="Path 217" d="M2288.323,235.252l-7-6.149L2220.5,284.73l62.02,54.551,5.8-.051Z" transform="translate(-1167.717 -13.611)" fill="#fff" stroke="#cecee8" stroke-width="1.191" fill-rule="evenodd"/>
          <path id="Path_218" data-name="Path 218" d="M2282.523,342.631l-62.02-54.543v0l62.02,54.547Z" transform="translate(-1167.717 -16.971)" fill="#fff" stroke="#cecee8" stroke-width="1.191"/>
          <path id="Path_219" data-name="Path 219" d="M2250.072,256.894l30.388-27.788v0Z" transform="translate(-1166.851 -13.611)" fill="#fff" stroke="#cecee8" stroke-width="1.191"/>
          <path id="Path_220" data-name="Path 220" d="M2281.327,229.1,2220.5,284.73l62.02,54.551,5.8-.051V235.252Z" transform="translate(-1167.717 -13.611)" fill="#fff" stroke="#cecee8" stroke-width="1.191"/>
          <path id="Path_221" data-name="Path 221" d="M2291.887,115.86l-7.844-6.882-.081-.056-62.1-54.489-123.053,1.081,124.168,109.436,68.911-.918Z" transform="translate(-1171.282 -3.662)" fill="#fff" stroke="#cecee8" stroke-width="1.191" fill-rule="evenodd"/>
          <path id="Path_222" data-name="Path 222" d="M2278.771,112.278l7.844,6.88v0Z" transform="translate(-1166.01 -6.957)" fill="#fff" stroke="#cecee8" stroke-width="1.191"/>
          <path id="Path_223" data-name="Path 223" d="M2218.358,54.44h0l62.1,54.481v0Z" transform="translate(-1167.78 -3.662)" fill="#fff" stroke="#cecee8" stroke-width="1.191"/>
          <path id="Path_224" data-name="Path 224" d="M2278.692,112.21v0l.082.056-.082-.056Z" transform="translate(-1166.013 -6.953)" fill="#fff" stroke="#cecee8" stroke-width="1.191"/>
          <path id="Path_225" data-name="Path 225" d="M2288.353,170.65l-68.911.919,68.911-.918Z" transform="translate(-1167.749 -10.282)" fill="#fff" stroke="#cecee8" stroke-width="1.191"/>
          <path id="Path_226" data-name="Path 226" d="M2284.043,108.978l-.081-.056-62.1-54.489-123.053,1.081,124.168,109.436,68.911-.918V115.86Z" transform="translate(-1171.282 -3.662)" fill="#f5f5fb" stroke="#cecee8" stroke-width="1.191"/>
          <path id="Path_227" data-name="Path 227" d="M2042.626,227.855l60.823-55.449-61.427.529L1981.2,228.568Z" transform="translate(-1174.727 -10.382)" fill="#fff" stroke="#cecee8" stroke-width="1.191" fill-rule="evenodd"/>
          <path id="Path_228" data-name="Path 228" d="M2042.626,227.855l60.823-55.449-61.427.529L1981.2,228.568Z" transform="translate(-1174.727 -10.382)" fill="#fff" stroke="#cecee8" stroke-width="1.191"/>
        </g>
      </g>
    </g>
  </g>
</svg>
